#Comment line ignore any data following # character 
#Hierarchical Translation and Rotation (.htr) file 
[Header]	
#Header keywords are followed by a single value 
FileType HTR		#Single word string
DataType HTRS		#Translation followed by rotation and scale data
FileVersion 1		#integer
NumSegments 84		#integer
NumFrames 2		#integer
DataFrameRate 30		#integer, data frame rate in this file
EulerRotationOrder ZYX
CalibrationUnits mm
RotationUnits Degrees
GlobalAxisofGravity Y
BoneLengthAxis Y
ScaleFactor 1.00
[SegmentNames&Hierarchy]
#CHILD	PARENT
MASTER GLOBAL
root MASTER
chest root
L_mid_tent01 root
R_mid_tent01 root
spine01 root
Bip01_Neck chest
L_humerus chest
R_humerus chest
weapon_bone chest
Bip01_Head Bip01_Neck
eye_left_bone Bip01_Head
eye_right_bone Bip01_Head
L_forearm L_humerus
L_front_hand L_forearm
L_weapon_bone L_forearm
L_front_hand01_01 L_front_hand
L_front_hand02_01 L_front_hand
L_front_hand03_01 L_front_hand
L_front_hand01_02 L_front_hand01_01
L_front_hand02_02 L_front_hand02_01
L_front_hand03_02 L_front_hand03_01
R_forearm R_humerus
R_front_hand R_forearm
R_weapon_bone R_forearm
R_front_hand01_01 R_front_hand
R_front_hand02_01 R_front_hand
R_front_hand03_01 R_front_hand
R_front_hand01_02 R_front_hand01_01
R_front_hand02_02 R_front_hand02_01
R_front_hand03_02 R_front_hand03_01
null_rope01_connect L_mid_tent01
Rope1_Seg01 null_rope01_connect
Rope1_Seg02 Rope1_Seg01
Rope1_Seg03 Rope1_Seg02
Rope1_Seg04 Rope1_Seg03
Rope1_Seg05 Rope1_Seg04
Rope1_Seg06 Rope1_Seg05
Rope1_Seg07 Rope1_Seg06
Rope1_Seg09 Rope1_Seg07
L_mid_hand01 Rope1_Seg09
L_mid_hand02 Rope1_Seg09
L_mid_hand03 Rope1_Seg09
null_rope02_connect R_mid_tent01
Rope2_Seg01 null_rope02_connect
Rope2_Seg02 Rope2_Seg01
Rope2_Seg03 Rope2_Seg02
Rope2_Seg04 Rope2_Seg03
Rope2_Seg05 Rope2_Seg04
Rope2_Seg06 Rope2_Seg05
Rope2_Seg07 Rope2_Seg06
Rope2_Seg09 Rope2_Seg07
R_mid_hand01 Rope2_Seg09
R_mid_hand02 Rope2_Seg09
R_mid_hand03 Rope2_Seg09
spine02 spine01
spine03 spine02
pelvis spine03
null_rope03_connect pelvis
null_rope04_connect pelvis
Rope3_Seg01 null_rope03_connect
Rope3_Seg02 Rope3_Seg01
Rope3_Seg03 Rope3_Seg02
Rope3_Seg04 Rope3_Seg03
Rope3_Seg05 Rope3_Seg04
Rope3_Seg06 Rope3_Seg05
Rope3_Seg07 Rope3_Seg06
Rope3_Seg08 Rope3_Seg07
Rope3_Seg09 Rope3_Seg08
R_rear_hand01 Rope3_Seg09
R_rear_hand02 Rope3_Seg09
R_rear_hand03 Rope3_Seg09
Rope4_Seg01 null_rope04_connect
Rope4_Seg02 Rope4_Seg01
Rope4_Seg03 Rope4_Seg02
Rope4_Seg04 Rope4_Seg03
Rope4_Seg05 Rope4_Seg04
Rope4_Seg06 Rope4_Seg05
Rope4_Seg07 Rope4_Seg06
Rope4_Seg08 Rope4_Seg07
Rope4_Seg09 Rope4_Seg08
L_rear_hand01 Rope4_Seg09
L_rear_hand02 Rope4_Seg09
L_rear_hand03 Rope4_Seg09
[BasePosition]
#SegmentName Tx, Ty, Tz, Rx, Ry, Rz, BoneLength
MASTER 0.000000 0.000000 0.000000 -90.000000 0.000000 0.000000 10.000000 
root 0.000000 0.000000 0.000000 0.000000 0.000000 0.000000 10.000000 
chest 0.000000 0.000000 0.000000 0.000000 0.000000 0.000000 10.000000 
L_mid_tent01 0.000000 0.000000 0.000000 0.000000 0.000000 0.000000 10.000000 
R_mid_tent01 0.000000 0.000000 0.000000 0.000000 0.000000 0.000000 10.000000 
spine01 0.000000 0.000000 0.000000 0.000000 0.000000 0.000000 10.000000 
Bip01_Neck 0.000000 0.000000 0.000000 0.000000 0.000000 0.000000 10.000000 
L_humerus 0.000000 0.000000 0.000000 0.000000 0.000000 0.000000 10.000000 
R_humerus 0.000000 0.000000 0.000000 0.000000 0.000000 0.000000 10.000000 
weapon_bone 0.000000 0.000000 0.000000 0.000000 0.000000 0.000000 10.000000 
Bip01_Head 0.000000 0.000000 0.000000 0.000000 0.000000 0.000000 10.000000 
eye_left_bone 0.000000 0.000000 0.000000 0.000000 0.000000 0.000000 10.000000 
eye_right_bone 0.000000 0.000000 0.000000 0.000000 0.000000 0.000000 10.000000 
L_forearm 0.000000 0.000000 0.000000 0.000000 0.000000 0.000000 10.000000 
L_front_hand 0.000000 0.000000 0.000000 0.000000 0.000000 0.000000 10.000000 
L_weapon_bone 0.000000 0.000000 0.000000 0.000000 0.000000 0.000000 10.000000 
L_front_hand01_01 0.000000 0.000000 0.000000 0.000000 0.000000 0.000000 10.000000 
L_front_hand02_01 0.000000 0.000000 0.000000 0.000000 0.000000 0.000000 10.000000 
L_front_hand03_01 0.000000 0.000000 0.000000 0.000000 0.000000 0.000000 10.000000 
L_front_hand01_02 0.000000 0.000000 0.000000 0.000000 0.000000 0.000000 10.000000 
L_front_hand02_02 0.000000 0.000000 0.000000 0.000000 0.000000 0.000000 10.000000 
L_front_hand03_02 0.000000 0.000000 0.000000 0.000000 0.000000 0.000000 10.000000 
R_forearm 0.000000 0.000000 0.000000 0.000000 0.000000 0.000000 10.000000 
R_front_hand 0.000000 0.000000 0.000000 0.000000 0.000000 0.000000 10.000000 
R_weapon_bone 0.000000 0.000000 0.000000 0.000000 0.000000 0.000000 10.000000 
R_front_hand01_01 0.000000 0.000000 0.000000 0.000000 0.000000 0.000000 10.000000 
R_front_hand02_01 0.000000 0.000000 0.000000 0.000000 0.000000 0.000000 10.000000 
R_front_hand03_01 0.000000 0.000000 0.000000 0.000000 0.000000 0.000000 10.000000 
R_front_hand01_02 0.000000 0.000000 0.000000 0.000000 0.000000 0.000000 10.000000 
R_front_hand02_02 0.000000 0.000000 0.000000 0.000000 0.000000 0.000000 10.000000 
R_front_hand03_02 0.000000 0.000000 0.000000 0.000000 0.000000 0.000000 10.000000 
null_rope01_connect 0.000000 0.000000 0.000000 0.000000 0.000000 0.000000 10.000000 
Rope1_Seg01 0.000000 0.000000 0.000000 0.000000 0.000000 0.000000 10.000000 
Rope1_Seg02 0.000000 0.000000 0.000000 0.000000 0.000000 0.000000 10.000000 
Rope1_Seg03 0.000000 0.000000 0.000000 0.000000 0.000000 0.000000 10.000000 
Rope1_Seg04 0.000000 0.000000 0.000000 0.000000 0.000000 0.000000 10.000000 
Rope1_Seg05 0.000000 0.000000 0.000000 0.000000 0.000000 0.000000 10.000000 
Rope1_Seg06 0.000000 0.000000 0.000000 0.000000 0.000000 0.000000 10.000000 
Rope1_Seg07 0.000000 0.000000 0.000000 0.000000 0.000000 0.000000 10.000000 
Rope1_Seg09 0.000000 0.000000 0.000000 0.000000 0.000000 0.000000 10.000000 
L_mid_hand01 0.000000 0.000000 0.000000 0.000000 0.000000 0.000000 10.000000 
L_mid_hand02 0.000000 0.000000 0.000000 0.000000 0.000000 0.000000 10.000000 
L_mid_hand03 0.000000 0.000000 0.000000 0.000000 0.000000 0.000000 10.000000 
null_rope02_connect 0.000000 0.000000 0.000000 0.000000 0.000000 0.000000 10.000000 
Rope2_Seg01 0.000000 0.000000 0.000000 0.000000 0.000000 0.000000 10.000000 
Rope2_Seg02 0.000000 0.000000 0.000000 0.000000 0.000000 0.000000 10.000000 
Rope2_Seg03 0.000000 0.000000 0.000000 0.000000 0.000000 0.000000 10.000000 
Rope2_Seg04 0.000000 0.000000 0.000000 0.000000 0.000000 0.000000 10.000000 
Rope2_Seg05 0.000000 0.000000 0.000000 0.000000 0.000000 0.000000 10.000000 
Rope2_Seg06 0.000000 0.000000 0.000000 0.000000 0.000000 0.000000 10.000000 
Rope2_Seg07 0.000000 0.000000 0.000000 0.000000 0.000000 0.000000 10.000000 
Rope2_Seg09 0.000000 0.000000 0.000000 0.000000 0.000000 0.000000 10.000000 
R_mid_hand01 0.000000 0.000000 0.000000 0.000000 0.000000 0.000000 10.000000 
R_mid_hand02 0.000000 0.000000 0.000000 0.000000 0.000000 0.000000 10.000000 
R_mid_hand03 0.000000 0.000000 0.000000 0.000000 0.000000 0.000000 10.000000 
spine02 0.000000 0.000000 0.000000 0.000000 0.000000 0.000000 10.000000 
spine03 0.000000 0.000000 0.000000 0.000000 0.000000 0.000000 10.000000 
pelvis 0.000000 0.000000 0.000000 0.000000 0.000000 0.000000 10.000000 
null_rope03_connect 0.000000 0.000000 0.000000 0.000000 0.000000 0.000000 10.000000 
null_rope04_connect 0.000000 0.000000 0.000000 0.000000 0.000000 0.000000 10.000000 
Rope3_Seg01 0.000000 0.000000 0.000000 0.000000 0.000000 0.000000 10.000000 
Rope3_Seg02 0.000000 0.000000 0.000000 0.000000 0.000000 0.000000 10.000000 
Rope3_Seg03 0.000000 0.000000 0.000000 0.000000 0.000000 0.000000 10.000000 
Rope3_Seg04 0.000000 0.000000 0.000000 0.000000 0.000000 0.000000 10.000000 
Rope3_Seg05 0.000000 0.000000 0.000000 0.000000 0.000000 0.000000 10.000000 
Rope3_Seg06 0.000000 0.000000 0.000000 0.000000 0.000000 0.000000 10.000000 
Rope3_Seg07 0.000000 0.000000 0.000000 0.000000 0.000000 0.000000 10.000000 
Rope3_Seg08 0.000000 0.000000 0.000000 0.000000 0.000000 0.000000 10.000000 
Rope3_Seg09 0.000000 0.000000 0.000000 0.000000 0.000000 0.000000 10.000000 
R_rear_hand01 0.000000 0.000000 0.000000 0.000000 0.000000 0.000000 10.000000 
R_rear_hand02 0.000000 0.000000 0.000000 0.000000 0.000000 0.000000 10.000000 
R_rear_hand03 0.000000 0.000000 0.000000 0.000000 0.000000 0.000000 10.000000 
Rope4_Seg01 0.000000 0.000000 0.000000 0.000000 0.000000 0.000000 10.000000 
Rope4_Seg02 0.000000 0.000000 0.000000 0.000000 0.000000 0.000000 10.000000 
Rope4_Seg03 0.000000 0.000000 0.000000 0.000000 0.000000 0.000000 10.000000 
Rope4_Seg04 0.000000 0.000000 0.000000 0.000000 0.000000 0.000000 10.000000 
Rope4_Seg05 0.000000 0.000000 0.000000 0.000000 0.000000 0.000000 10.000000 
Rope4_Seg06 0.000000 0.000000 0.000000 0.000000 0.000000 0.000000 10.000000 
Rope4_Seg07 0.000000 0.000000 0.000000 0.000000 0.000000 0.000000 10.000000 
Rope4_Seg08 0.000000 0.000000 0.000000 0.000000 0.000000 0.000000 10.000000 
Rope4_Seg09 0.000000 0.000000 0.000000 0.000000 0.000000 0.000000 10.000000 
L_rear_hand01 0.000000 0.000000 0.000000 0.000000 0.000000 0.000000 10.000000 
L_rear_hand02 0.000000 0.000000 0.000000 0.000000 0.000000 0.000000 10.000000 
L_rear_hand03 0.000000 0.000000 0.000000 0.000000 0.000000 0.000000 10.000000 
#Beginning of Data. Separated by tabs
#Fr	Tx	Ty	Tz	Rx	Ry	Rz	SF
[MASTER]
23 0.000000 0.000000 0.000000 0.001660 0.001660 0.001660 0.000000
24 0.000000 0.000000 0.000000 0.001660 0.001660 0.001660 0.000000
[root]
23 -54.732960 -2.569046 1178.949585 -87.639618 -30.581919 -87.446686 1180.222168
24 -51.371407 -3.048304 1164.408813 -87.872551 -31.549932 -87.658264 1165.545532
[chest]
23 -84.512650 -34.090519 0.000000 0.856737 -0.906076 -145.888733 91.129311
24 -84.512650 -34.090519 0.000000 1.015652 -1.036549 -143.768204 91.129311
[L_mid_tent01]
23 27.299500 22.177483 -249.917984 -4.916580 19.729486 67.052307 252.380859
24 27.299500 22.177483 -249.917984 -6.710579 15.606200 63.423115 252.380859
[R_mid_tent01]
23 23.228794 24.509907 226.238495 177.010788 -31.358690 69.223061 228.744751
24 23.228794 24.509907 226.238495 179.798141 -26.751175 65.384697 228.744751
[spine01]
23 -0.361383 -0.195265 0.000000 0.001905 0.001374 18.401831 0.410763
24 -0.361383 -0.195265 0.000000 0.001906 0.001371 18.532219 0.410763
[Bip01_Neck]
23 165.484543 71.581718 0.000119 175.896118 1.177290 24.871183 180.302734
24 165.484543 71.581718 0.000119 175.896118 1.177290 24.871180 180.302734
[L_humerus]
23 -13.983130 -135.272980 -120.471481 178.803925 1.684345 -86.630051 181.680161
24 -13.983130 -135.272980 -120.471481 -178.281677 1.886858 -87.432503 181.680161
[R_humerus]
23 -13.983309 -135.273102 125.287651 -177.927048 -1.023230 -88.291855 184.909012
24 -13.983309 -135.273102 125.287651 -177.927261 -1.023265 -88.291832 184.909012
[weapon_bone]
23 235.964890 -300.705902 0.000000 0.000000 -89.951546 -128.212341 382.234833
24 235.964890 -300.705902 0.000000 0.000000 -89.951546 -128.212341 382.234833
[Bip01_Head]
23 102.819786 23.735600 5.410259 3.150732 3.423701 -20.839092 105.662468
24 102.819786 23.735594 5.410264 3.150732 3.423702 -20.839092 105.662468
[eye_left_bone]
23 -24.626970 125.451866 -64.772606 0.000000 -90.000000 -99.840431 143.318359
24 -24.626970 125.451866 -64.772606 0.000000 -90.000000 -99.840431 143.318359
[eye_right_bone]
23 -24.626970 125.451866 64.327362 0.000000 -89.960434 80.159386 143.117676
24 -24.626970 125.451866 64.327362 0.000000 -89.960434 80.159386 143.117676
[L_forearm]
23 322.776093 0.000000 -0.000119 0.000243 0.002335 -78.130280 322.776093
24 322.776093 0.000000 -0.000119 0.000235 0.002335 -78.499245 322.776093
[L_front_hand]
23 241.149185 -0.042021 -3.300071 -177.835938 0.682441 -98.870590 241.171753
24 241.149185 -0.042021 -3.300071 -177.831345 0.657021 -98.264175 241.171753
[L_weapon_bone]
23 156.183838 0.000000 0.000000 0.001975 0.001268 24.592031 156.183838
24 156.183838 0.000000 0.000000 0.001992 0.001242 26.107729 156.183838
[L_front_hand01_01]
23 86.095154 20.947098 -0.655860 0.405585 -0.442306 -4.620490 88.609184
24 86.095154 20.947098 -0.655860 0.405585 -0.442306 -4.620490 88.609184
[L_front_hand02_01]
23 86.935165 -11.437475 24.513514 116.959450 3.630817 1.495453 91.046425
24 86.935165 -11.437475 24.513514 116.959450 3.630817 1.495453 91.046425
[L_front_hand03_01]
23 86.637497 -14.123976 -20.424902 -118.420097 -4.656303 -0.152527 90.126129
24 86.637497 -14.123976 -20.424902 -118.420097 -4.656303 -0.152527 90.126129
[L_front_hand01_02]
23 71.020905 -0.000179 0.000030 0.001534 0.001777 -8.378850 71.020905
24 71.020905 -0.000179 0.000030 0.001534 0.001777 -8.378848 71.020905
[L_front_hand02_02]
23 71.020927 -0.000119 0.000060 0.001534 0.001777 -8.378850 71.020927
24 71.020927 -0.000119 0.000060 0.001534 0.001777 -8.378848 71.020927
[L_front_hand03_02]
23 71.020905 -0.000060 0.000060 0.001534 0.001777 -8.378850 71.020905
24 71.020905 -0.000060 0.000060 0.001534 0.001777 -8.378848 71.020905
[R_forearm]
23 322.776428 -0.000060 0.000030 0.205884 -0.047911 -77.728836 322.776428
24 322.776428 -0.000060 0.000030 0.208231 -0.044468 -78.771881 322.776428
[R_front_hand]
23 238.847015 -0.006795 2.210259 -1.689674 -0.352205 -90.578560 238.857239
24 238.847015 -0.006795 2.210259 -1.693146 -0.334001 -89.970978 238.857239
[R_weapon_bone]
23 155.664093 0.002503 -0.000030 0.003291 0.001648 -106.805351 155.664078
24 155.664093 0.002503 -0.000030 0.003274 0.001682 -107.994446 155.664078
[R_front_hand01_01]
23 87.624611 14.231146 22.918642 -116.960213 3.496675 -1.324139 91.683487
24 87.624611 14.231146 22.918642 -116.960205 3.496675 -1.324138 91.683487
[R_front_hand02_01]
23 89.356956 14.367283 -19.491137 118.419647 -4.257089 0.609827 92.579636
24 89.356956 14.367283 -19.491137 118.419647 -4.257089 0.609827 92.579636
[R_front_hand03_01]
23 87.286232 -22.307278 -0.143439 -0.387970 -0.231462 4.232001 90.091743
24 87.286232 -22.307278 -0.143439 -0.387970 -0.231462 4.232001 90.091743
[R_front_hand01_02]
23 71.020905 0.000060 0.000119 0.001777 0.001534 8.377218 71.020905
24 71.020905 0.000060 0.000119 0.001777 0.001534 8.377220 71.020905
[R_front_hand02_02]
23 71.020844 -0.000030 -0.000119 0.001777 0.001534 8.377218 71.020836
24 71.020844 -0.000030 -0.000119 0.001777 0.001534 8.377220 71.020836
[R_front_hand03_02]
23 71.020905 0.000000 0.000030 0.001777 0.001534 8.377218 71.020905
24 71.020905 0.000000 0.000030 0.001777 0.001534 8.377220 71.020905
[null_rope01_connect]
23 328.732483 0.000000 -0.000238 -146.269073 -73.557434 -160.810272 328.732483
24 328.732483 0.000000 -0.000238 -153.022354 -76.376297 -149.542328 328.732483
[Rope1_Seg01]
23 0.000000 0.000000 0.000000 118.275612 19.083946 163.443298 0.000000
24 0.000000 0.000000 0.000000 119.269966 18.682976 169.352493 0.000000
[Rope1_Seg02]
23 139.999863 -0.000179 0.000000 2.118788 -27.960907 3.252057 139.999863
24 139.999863 -0.000179 0.000000 3.910914 -24.926497 2.603917 139.999863
[Rope1_Seg03]
23 139.999924 0.000060 -0.000060 -4.371646 -33.037434 -4.195665 139.999924
24 139.999924 0.000060 -0.000060 -1.816878 -35.970478 -3.017985 139.999924
[Rope1_Seg04]
23 139.999924 -0.000060 -0.000119 -3.835819 -15.934558 14.398155 139.999924
24 139.999924 -0.000060 -0.000119 -5.585643 -18.807129 12.288610 139.999924
[Rope1_Seg05]
23 139.999832 0.000119 -0.000060 14.680500 -8.622732 23.873770 139.999832
24 139.999832 0.000119 -0.000060 16.768225 -9.845591 28.265057 139.999832
[Rope1_Seg06]
23 139.999954 0.000119 -0.000060 14.271014 -2.405566 9.894094 139.999954
24 139.999954 0.000119 -0.000060 21.759399 -1.927457 12.466904 139.999954
[Rope1_Seg07]
23 139.999985 0.000060 0.000000 14.829124 0.005468 5.645409 139.999985
24 139.999985 0.000060 0.000000 20.441448 1.235607 6.298385 139.999985
[Rope1_Seg09]
23 121.602913 0.000119 -0.000089 -89.793175 -1.359789 0.847147 121.602913
24 121.602913 0.000119 -0.000089 -89.793175 -1.359789 0.847147 121.602913
[L_mid_hand01]
23 103.859421 1.038730 8.195221 105.378258 -20.781033 -6.105286 104.187431
24 103.859421 1.038730 8.195221 105.270630 -19.714989 -5.794334 104.187431
[L_mid_hand02]
23 105.572853 -4.139662 -10.864139 -138.870514 18.824362 -19.681400 106.211075
24 105.572853 -4.139662 -10.864139 -138.594757 18.100479 -18.811594 106.211075
[L_mid_hand03]
23 104.641464 17.579376 -3.913581 -17.619331 6.569789 23.706278 106.179977
24 104.641464 17.579376 -3.913581 -17.737728 6.233341 22.645985 106.179977
[null_rope02_connect]
23 328.732849 0.000179 -0.000119 -122.473473 54.260365 5.464839 328.732849
24 328.732849 0.000179 -0.000119 -122.760468 59.364201 1.159396 328.732849
[Rope2_Seg01]
23 0.000095 0.000153 0.000034 -62.877636 26.353542 10.759073 0.000183
24 0.000095 0.000153 0.000035 -61.442471 23.433372 7.566423 0.000183
[Rope2_Seg02]
23 139.999741 -0.000060 -0.000119 -8.045197 -12.611107 18.160763 139.999756
24 139.999741 -0.000060 -0.000119 -8.771959 -10.574426 17.516542 139.999756
[Rope2_Seg03]
23 140.000107 0.000030 0.000000 -6.175737 -9.910424 28.121168 140.000107
24 140.000107 0.000030 0.000000 -8.405493 -9.808029 30.791531 140.000107
[Rope2_Seg04]
23 139.999802 0.000000 -0.000060 -4.316787 -32.472401 2.213027 139.999802
24 139.999802 0.000000 -0.000060 -3.480526 -30.344419 6.043340 139.999802
[Rope2_Seg05]
23 139.999985 -0.000060 0.000119 -16.012905 -25.413004 -9.725819 139.999985
24 139.999985 -0.000060 0.000119 -18.824791 -31.600950 -13.726429 139.999985
[Rope2_Seg06]
23 139.999893 -0.000030 -0.000119 -8.309716 -7.335207 -4.146729 139.999893
24 139.999893 -0.000030 -0.000119 -10.046313 -8.083166 -5.670576 139.999893
[Rope2_Seg07]
23 139.999893 0.000060 -0.000060 -5.380208 -3.520376 -2.745846 139.999893
24 139.999893 0.000060 -0.000060 -6.061993 -3.495153 -3.520144 139.999893
[Rope2_Seg09]
23 121.338966 0.000089 -0.000060 33.793236 -1.359788 -0.847141 121.338966
24 121.338966 0.000089 -0.000060 33.793236 -1.359788 -0.847141 121.338966
[R_mid_hand01]
23 104.680779 11.144459 -10.335981 -44.711411 17.926102 19.997673 105.778534
24 104.680779 11.144459 -10.335981 -44.945679 17.188433 19.219641 105.778534
[R_mid_hand02]
23 104.070427 2.443552 8.231699 74.455666 -22.228052 6.542462 104.424065
24 104.070427 2.443552 8.231699 74.567558 -21.226114 6.241598 104.424065
[R_mid_hand03]
23 106.028137 -11.221827 -5.996406 -166.201843 7.796249 -26.198603 106.788818
24 106.028137 -11.221827 -5.996406 -166.065552 7.546040 -25.179911 106.788818
[spine02]
23 129.756927 0.001550 0.000119 -1.145622 -3.914973 8.364770 129.756927
24 129.756927 0.001550 0.000119 -1.189257 -3.904316 8.998807 129.756927
[spine03]
23 78.834564 0.048877 -2.743324 -0.664814 4.514275 -17.409824 78.882294
24 78.844597 0.047131 -2.645348 -0.673514 4.543015 -17.515673 78.888977
[pelvis]
23 169.435242 0.051022 0.000000 -3.114593 -1.608635 5.043157 169.435257
24 169.435242 0.051022 0.000000 -3.259948 -1.664129 5.361156 169.435257
[null_rope03_connect]
23 -1.257226 -2.466202 137.391083 115.267380 -85.793182 -8.941046 137.418976
24 -1.257226 -2.466202 137.391083 122.363266 -85.884865 -16.047405 137.418976
[null_rope04_connect]
23 -1.259640 -2.480268 -137.844437 115.267380 -85.793182 -8.941046 137.872513
24 -1.259640 -2.480268 -137.844437 122.363266 -85.884865 -16.047405 137.872513
[Rope3_Seg01]
23 0.000000 0.000000 0.000000 -131.992889 -16.523121 -74.899315 0.000000
24 0.000000 0.000000 0.000000 -131.088608 -10.585174 -76.525116 0.000000
[Rope3_Seg02]
23 139.999924 -0.000119 0.000060 -34.642807 -14.143801 -72.459869 139.999924
24 139.999924 -0.000119 0.000060 -98.359558 -24.837572 -94.183693 139.999924
[Rope3_Seg03]
23 139.999924 -0.000119 0.000119 -115.961220 29.237068 -69.557770 139.999924
24 139.999924 -0.000119 0.000119 -25.708101 57.461384 19.061609 139.999924
[Rope3_Seg04]
23 139.999924 0.000119 0.000000 -0.430451 8.450871 7.796605 139.999924
24 139.999924 0.000119 0.000000 0.349372 4.842309 7.625429 139.999924
[Rope3_Seg05]
23 139.999924 -0.000238 0.000060 -0.010126 3.307234 3.019837 139.999924
24 139.999924 -0.000238 0.000060 0.165981 1.912310 2.730145 139.999924
[Rope3_Seg06]
23 139.999893 -0.000119 -0.000060 0.343360 1.792380 1.604744 139.999893
24 139.999893 -0.000119 -0.000060 0.418727 1.158104 1.623279 139.999893
[Rope3_Seg07]
23 139.999771 0.000060 -0.000119 0.468243 1.223860 1.079961 139.999771
24 139.999771 0.000060 -0.000119 0.509177 0.812756 1.123056 139.999771
[Rope3_Seg08]
23 139.999985 -0.000060 0.000000 0.515544 0.765257 0.667848 139.999985
24 139.999985 -0.000060 0.000000 0.534089 0.522626 0.706403 139.999985
[Rope3_Seg09]
23 90.185997 -0.000179 -0.000060 89.793228 -1.359877 -0.847183 90.185997
24 90.185997 -0.000179 -0.000060 89.793228 -1.359877 -0.847183 90.185997
[R_rear_hand01]
23 103.366196 -6.073594 -10.757982 -159.080414 13.369017 -20.575476 104.101845
24 103.366196 -6.073594 -10.757982 -158.871658 13.026333 -19.661514 104.101845
[R_rear_hand02]
23 100.509819 12.039542 -7.992327 -36.630840 13.623259 20.597067 101.543350
24 100.509819 12.039542 -7.992327 -36.813847 13.048745 19.805681 101.543350
[R_rear_hand03]
23 101.539970 5.215704 5.435467 83.899948 -21.244711 6.080172 101.819031
24 101.539970 5.215704 5.435467 83.937881 -20.288624 5.971837 101.819031
[Rope4_Seg01]
23 0.000000 0.000000 0.000000 47.220833 4.756250 -92.431351 0.000000
24 0.000000 0.000000 0.000000 49.044788 12.445078 -90.685539 0.000000
[Rope4_Seg02]
23 139.999985 0.000060 0.000119 125.922623 -81.243591 -93.068558 139.999985
24 139.999985 0.000060 0.000119 164.018753 -69.990685 -123.355858 139.999985
[Rope4_Seg03]
23 139.999924 0.000000 -0.000238 81.003685 -47.150883 39.475395 139.999924
24 139.999924 0.000000 -0.000238 86.867546 -42.230843 42.867542 139.999924
[Rope4_Seg04]
23 139.999985 0.000000 0.000119 8.674603 10.013458 19.128605 139.999985
24 139.999985 0.000000 0.000119 5.672716 9.566858 14.474429 139.999985
[Rope4_Seg05]
23 139.999802 -0.000060 -0.000119 1.509962 4.605816 6.312496 139.999802
24 139.999802 -0.000060 -0.000119 0.896926 3.563062 4.107742 139.999802
[Rope4_Seg06]
23 139.999924 0.000000 0.000060 0.545592 2.313154 2.921664 139.999924
24 139.999924 0.000000 0.000060 0.431324 2.016636 2.205619 139.999924
[Rope4_Seg07]
23 139.999802 0.000000 0.000000 0.358912 1.543928 1.915798 139.999802
24 139.999802 0.000000 0.000000 0.316297 1.377563 1.484374 139.999802
[Rope4_Seg08]
23 139.999924 0.000000 0.000119 -1.343921 0.950210 1.167727 139.999924
24 139.999924 0.000000 0.000119 -1.356521 0.863320 0.921325 139.999924
[Rope4_Seg09]
23 90.185791 0.000060 0.000060 -135.617828 2.228885 0.850567 90.185791
24 90.185791 0.000060 0.000060 -135.617828 2.228885 0.850567 90.185791
[L_rear_hand01]
23 101.696655 -8.392275 -7.654577 -36.952377 -12.598866 160.811295 102.329041
24 101.696655 -8.392275 -7.654577 -37.133511 -11.974803 161.657745 102.329041
[L_rear_hand02]
23 102.726799 -1.568258 5.773216 83.963585 19.548214 174.112076 102.900848
24 102.726799 -1.568258 5.773216 84.001312 18.501341 174.228790 102.900848
[L_rear_hand03]
23 104.552910 9.721220 -10.420293 -158.710831 -12.757474 -161.056931 105.519653
24 104.552910 9.721220 -10.420293 -158.496140 -12.379137 -162.045486 105.519653
